<?xml version="1.0" standalone="no"?>
<!DOCTYPE svg PUBLIC "-//W3C//DTD SVG 20010904//EN"
 "http://www.w3.org/TR/2001/REC-SVG-20010904/DTD/svg10.dtd">
<svg version="1.0" xmlns="http://www.w3.org/2000/svg"
 width="141.000000pt" height="141.000000pt" viewBox="0 0 141.000000 141.000000"
 preserveAspectRatio="xMidYMid meet">
<metadata>
Created by potrace 1.14, written by Peter Selinger 2001-2017
</metadata>
<g transform="translate(0.000000,141.000000) scale(0.100000,-0.100000)"
fill="#000000" stroke="none">
<path d="M0 710 l0 -690 705 0 705 0 0 690 0 690 -705 0 -705 0 0 -690z m509
408 c58 -40 147 -99 196 -133 l90 -61 3 -82 3 -82 -46 -20 c-49 -21 -50 -25
-36 -113 9 -54 4 -60 -64 -71 -22 -4 -52 -12 -67 -18 -28 -10 -28 -11 -28
-104 l0 -94 -67 44 c-38 25 -97 63 -133 86 -150 95 -305 207 -316 229 -16 32
-8 52 74 173 37 55 72 107 77 116 6 9 12 19 15 22 3 3 32 44 64 93 55 82 61
87 93 87 27 0 60 -17 142 -72z m664 52 c14 -11 28 -34 32 -51 4 -17 13 -42 21
-57 8 -15 14 -35 14 -44 0 -9 4 -19 9 -23 5 -3 12 -19 16 -36 4 -17 13 -42 21
-57 8 -15 14 -35 14 -44 0 -10 4 -18 9 -18 5 0 12 -16 15 -35 4 -19 13 -47 21
-62 8 -15 15 -35 15 -44 0 -8 5 -20 11 -26 16 -16 -15 -58 -59 -78 -20 -9 -45
-20 -54 -25 -10 -6 -23 -10 -30 -10 -7 0 -25 -6 -40 -14 -63 -33 -78 -30 -161
31 -69 51 -77 61 -72 83 4 14 10 27 15 30 5 3 12 18 15 33 4 15 11 30 16 33 5
3 9 13 9 23 0 12 -19 26 -60 44 l-60 27 6 55 c6 45 4 59 -11 75 -10 11 -22 20
-27 20 -5 0 -15 6 -22 13 -8 6 -23 19 -35 27 -29 20 -27 27 17 35 20 4 42 10
47 14 6 4 33 16 60 26 28 9 64 23 80 30 36 16 115 42 131 44 6 0 23 -8 37 -19z
m-358 -760 c27 -27 54 -50 61 -50 6 0 35 23 64 51 l52 52 26 -27 26 -26 -52
-53 c-29 -29 -52 -58 -52 -65 0 -6 23 -33 50 -59 28 -26 50 -51 50 -56 0 -6
-11 -20 -24 -32 l-24 -22 -44 44 c-70 72 -71 72 -134 9 l-55 -56 -24 26 c-14
15 -25 30 -25 33 0 4 23 29 50 56 28 27 50 54 50 59 0 6 -23 34 -52 63 l-52
53 24 25 c13 14 26 25 30 25 3 0 28 -22 55 -50z"/>
<path d="M339 1118 c-7 -13 -15 -25 -18 -28 -21 -16 -110 -162 -106 -172 6
-14 12 -18 160 -114 50 -32 92 -60 95 -64 18 -21 164 -110 181 -110 18 0 19 5
13 63 l-6 62 43 16 c44 16 44 16 47 69 2 40 -1 56 -15 69 -42 39 -343 231
-362 231 -11 0 -26 -10 -32 -22z"/>
<path d="M111 776 c-22 -35 -28 -76 -12 -76 5 0 16 -6 23 -13 11 -11 165 -114
327 -218 24 -16 48 -26 52 -23 5 3 9 33 9 68 0 57 -2 64 -30 84 -16 12 -33 22
-39 22 -5 0 -11 4 -13 8 -6 15 -264 182 -280 182 -9 0 -26 -15 -37 -34z"/>
<path d="M1040 1106 c-154 -53 -167 -65 -106 -107 25 -17 32 -27 26 -39 -8
-14 -13 -53 -11 -76 1 -6 22 -19 49 -28 26 -10 55 -21 64 -27 22 -11 43 -12
66 0 9 5 38 17 65 26 52 18 57 33 32 81 -8 16 -15 36 -15 45 0 8 -4 19 -9 25
-4 5 -17 33 -27 62 -10 29 -23 57 -29 61 -5 5 -52 -5 -105 -23z"/>
<path d="M1225 749 c-27 -12 -69 -28 -140 -53 -74 -27 -78 -46 -17 -93 43 -33
79 -37 107 -12 5 5 15 9 23 9 13 0 68 21 102 40 17 9 18 51 1 93 -11 29 -37
34 -76 16z"/>
</g>
</svg>
